<svg id="图层_1" data-name="图层 1" xmlns="http://www.w3.org/2000/svg" xmlns:xlink="http://www.w3.org/1999/xlink" viewBox="0 0 639.52 639.71"><defs><style>.cls-1{fill:none;}.cls-2{fill:#767676;}.cls-3{clip-path:url(#clip-path);}.cls-4{fill:#f40c0c;}.cls-5{clip-path:url(#clip-path-2);}</style><clipPath id="clip-path" transform="translate(-55.32 -55.29)"><rect class="cls-1" x="54" y="55" width="640.88" height="640"/></clipPath><clipPath id="clip-path-2" transform="translate(-55.32 -55.29)"><rect class="cls-1" x="55.28" y="55.29" width="640.88" height="640"/></clipPath></defs><title>猕猴桃</title><path class="cls-2" d="M520.44,381.56c-23.84-.8-39.92-1.2-56.08-1.92a9.57,9.57,0,0,1-5.68-2.16c-2-1.92-.8-5.52,1.92-6.48a12.61,12.61,0,0,1,3.92-.72l93.84-3.12c1,0,1.84-.08,2.8-.08,5,.08,8.64,3.52,8.64,8s-3.68,8-8.8,7.84c-16.08-.48-32.16-1.12-40.56-1.36Zm-285.92-.24c-15.68.56-31.44,1-47.12,1.68-3.84.16-6.8-1-8.56-4.56-2.72-5.44,1.36-11.44,7.92-11.28,10.8.24,21.6.64,32.32,1l62.72,2.16c1.6.08,3.44-.16,4.64.56,1.44,1,3.2,2.8,3.12,4.24s-1.92,3-3.28,4.16c-.64.56-2,.4-3.12.48-16.24.48-32.4,1-48.64,1.52Zm44.4-177c4.88-.08,7,2.4,8.8,5.68q18.6,34.92,37.2,69.76c2.72,5,5.6,10,8,15.2a8,8,0,0,1,.24,5.92c-1.2,2.64-4.56,2.72-6.72.48a19.33,19.33,0,0,1-2.16-2.88Q299.2,258.2,274,217.88c-3.12-5-2.48-9.76,1.6-12.24a13.94,13.94,0,0,1,3.28-1.28Zm196.8,9a20.91,20.91,0,0,1-1.6,3.84q-25.32,40.92-50.8,81.68c-.56.88-1.12,2.16-1.92,2.48-1.52.64-3.76,1.44-4.88.8-1.28-.8-2.08-3-2.4-4.72-.16-1.12.8-2.48,1.36-3.6Q437.8,251.92,460.2,210c1.68-3.12,3.76-5.44,7.6-5.6,4.48-.16,8,3.36,7.92,9Zm0,323.36c-.16,4.8-1.92,7.44-5.28,8.48a7.37,7.37,0,0,1-8.64-2.4,22.22,22.22,0,0,1-2.24-3.76q-22-41.16-44-82.4c-.72-1.36-1.76-3-1.68-4.4.16-1.6,1.12-3.76,2.32-4.4s3.44-.08,4.88.72c1.12.64,1.84,2.24,2.64,3.44q24.84,39.84,49.6,79.68a42.72,42.72,0,0,1,2.4,5Zm-203.6-.24a20.83,20.83,0,0,1,1.52-3.52q25.44-41,51-82.08c.48-.8,1-1.92,1.68-2.16,1.68-.56,4-1.44,5.2-.72s1.84,3.12,2.16,4.88c.16,1-.72,2.24-1.28,3.28-15,28.08-30,56.08-44.88,84.16-1.52,2.88-3.44,5-6.88,5.36-5,.4-8.8-3.28-8.56-9.2ZM380.28,249.8c-.64,13-1.12,24.08-1.68,35.12-.16,3.12-.88,6.08-4.88,6-3.76-.08-4.4-3-4.56-5.84-1.12-21.44-2.16-42.8-3.2-64.24-.24-5.92,3.12-9.84,8-9.76s8,3.92,7.76,9.6c-.4,10.4-1,20.8-1.44,29.12ZM367.64,497.72c.48-10.88,1-21.84,1.52-32.72.16-3.12.88-6.08,4.88-5.92,3.76.08,4.32,3,4.48,5.92,1.12,21.44,2.16,42.8,3.2,64.24.24,5.84-3.12,9.84-8.08,9.68-4.8-.16-7.92-3.92-7.68-9.68.56-10.48,1.12-21,1.68-31.52Zm-127.76-36.8c-4.8-.16-7.36-1.92-8.56-5.52-1.2-3.44,0-6.32,2.64-8.56a17.61,17.61,0,0,1,3.76-2.16c18.32-9.44,36.72-18.8,55-28.24,1.36-.72,3-1.6,4.48-1.44a5.84,5.84,0,0,1,3.92,2.64c.56,1,.16,3-.4,4.32-.56,1-1.92,1.76-3,2.48-17.68,11.44-35.28,22.8-53,34.16a35.48,35.48,0,0,1-4.8,2.32Zm277-8.24c0,6.64-6.8,10.24-12.48,6.8-5.44-3.28-10.72-6.88-16.08-10.4L450.44,424.6c-1-.64-2.4-1.2-2.8-2.16-.64-1.6-1.44-4-.8-5.2s3.12-1.84,4.88-2.16c.88-.16,2,.64,3,1.12,19,9.68,37.84,19.44,56.8,29.12,3.28,1.68,5.2,4,5.44,7.36ZM517,298.6c-1,1.12-2.24,4.16-4.48,5.36-19.52,10.32-39.2,20.32-58.88,30.32-2.56,1.36-5.12,1.6-7-1.36-1.84-3.12,0-5,2.32-6.64,18.4-11.92,36.88-23.92,55.36-35.68,5.68-3.6,12.48,0,12.64,8Zm-277.2-9.44a21.57,21.57,0,0,1,4.16,1.76c18.16,11.6,36.24,23.36,54.4,35,2.48,1.6,4.72,3.36,2.8,6.8s-4.88,2.64-7.6,1.2c-19.2-9.84-38.32-19.68-57.52-29.52-4.08-2.08-5.76-5.44-5-9,.8-3.76,3.84-6.24,8.72-6.24ZM356,468.36c-2,4.4-3.76,8.88-6.16,13a5.77,5.77,0,0,1-5,2.16c-1.44-.4-3-2.64-3.36-4.32a20.18,20.18,0,0,1,4.16-16.8c1.2-1.52,4.24-3.28,5.44-2.72,1.68.72,2.56,3.52,3.6,5.52.4.72.16,1.84.16,2.72a6.27,6.27,0,0,1,1.12.4Zm36.88-1c.24-3.12-.08-7,3.84-7.92,3.52-.8,5.84,2.16,6.8,5a61,61,0,0,1,2.88,14.16c.16,1.6-1.76,4.56-3.12,4.8-1.68.32-4.72-1-5.6-2.48-2.4-4.16-3.92-8.72-5.84-13.12.4-.16.72-.32,1-.48Zm80.4-59.6a20.26,20.26,0,0,1-12.72-5.12c-1.28-1.2-2.48-3.68-2-5s2.72-2.88,4.48-3.2a19.52,19.52,0,0,1,16.16,3.84c1.68,1.36,3.6,4.4,3.12,6s-3.76,2.48-5.92,3.52c-.56.24-1.28,0-3.12,0Zm-199.68.08c-1.36-.08-2.32.16-3-.16-1.92-1-5-2-5.2-3.36-.32-1.76,1.2-4.56,2.8-5.84a20,20,0,0,1,16.48-4.08c1.68.32,4,1.76,4.48,3.2s-.72,3.84-2,5c-3.84,3.76-8.88,5-13.6,5.2Zm133-133.28c-.32,5.28-1.52,10.32-5.44,14.16-1.12,1.12-3.44,2.16-4.8,1.76s-2.8-2.48-3.12-4.08A19.53,19.53,0,0,1,397,269.8c1.36-1.68,4.48-3.6,6-3.12,1.68.48,2.48,3.76,3.52,5.92.32.48.08,1.2.08,1.92ZM341.16,274c0-.64-.24-1.44.08-2,1-2,2-5,3.6-5.44s4.48,1.28,5.76,2.88a19.77,19.77,0,0,1,3.92,16.48c-.32,1.68-1.84,4-3.28,4.4s-3.84-.88-5-2.16c-3.68-3.76-4.88-8.8-5-14.16ZM474.6,342.2c1.12.08,2.08-.16,2.64.24,1.84,1,4.64,2,5.12,3.52s-1.12,4.32-2.64,5.52a20,20,0,0,1-16.8,4.16c-1.68-.32-4-1.84-4.4-3.28s.88-3.84,2.16-5c3.92-3.68,8.88-5,13.92-5.12ZM308.12,435.8c3.6-.08,5,1.2,5,4.08.08,6.32-9.36,15.92-15.76,15.92-2.72,0-4.24-1.36-4.24-4.08-.08-6.4,9.36-15.92,15-15.92Zm132.08-.08c4.8-.08,14.32,9.36,14.4,15.76,0,3-1.76,4.56-4.88,4.24-6-.64-14.4-9-15-15-.32-3,.56-5,5.52-5ZM280.68,357.08c-4.4-1.92-9-3.6-13-6a6.25,6.25,0,0,1-2.24-5.28c.24-1.36,2.72-2.88,4.48-3.2a19.83,19.83,0,0,1,16.48,4.16c1.6,1.28,3.28,4.24,2.8,5.76s-3.6,2.4-5.6,3.36a5.9,5.9,0,0,1-2.4.16c-.16.32-.32.64-.48,1ZM454.6,297.72c-.08,7.12-9.6,16.56-15.92,16.56-2.8,0-4.08-1.36-4.08-4.16.08-6.4,9.52-15.84,15.84-15.76,2.8-.08,4.16,1.44,4.16,3.36Zm-158-3.44c7.12.08,16.56,9.6,16.56,15.92,0,2.8-1.44,4.08-4.16,4.08-6.4-.08-15.84-9.52-15.76-15.84-.08-2.8,1.44-4.16,3.36-4.16Zm0,0" transform="translate(-55.32 -55.29)"/><g class="cls-3"><path class="cls-4" d="M358.92,695c-7.12-.72-14.24-1.44-21.44-2.24a314.58,314.58,0,0,1-138-50.08c-8.64-5.68-17-12-25.2-18.32,88.16,32.8,175.12,31.28,260.24-9.52C496.6,585.08,544,539.16,576.68,478.52,612.6,411.64,623.24,340.44,608.92,266S557.32,130.2,500.12,80.52c2.24,1,4.56,1.84,6.72,3,99.84,48,161,126.16,182.88,234.88,2.4,12,3,24.32,4.4,36.48.16,1.44.48,2.88.72,4.24v32c-.24,1.44-.56,2.8-.72,4.24-1.68,13.6-2.48,27.36-5.2,40.8Q661.56,569.68,547.24,644.6c-41,26.8-86.16,42.56-134.88,48.16-7.12.8-14.24,1.52-21.36,2.24Zm0,0" transform="translate(-55.32 -55.29)"/></g><g class="cls-5"><path class="cls-4" d="M391.24,55.29c7.12.72,14.24,1.45,21.44,2.24a314.72,314.72,0,0,1,138,50.09c8.64,5.67,17,12,25.2,18.32-88.16-32.81-175.12-31.29-260.24,9.52-62.08,29.76-109.52,75.68-142.16,136.32-35.92,66.87-46.56,138.07-32.24,212.55S192.84,620.1,250,669.78c-2.24-1-4.56-1.84-6.72-3-99.84-48-161-126.17-182.88-234.88-2.4-12-3-24.32-4.4-36.48-.16-1.45-.48-2.88-.72-4.24v-32c.24-1.44.56-2.8.72-4.24,1.68-13.61,2.48-27.36,5.2-40.81Q88.6,180.62,202.92,105.69c41-26.79,86.16-42.56,134.88-48.16,7.12-.79,14.24-1.52,21.36-2.24Zm0,0" transform="translate(-55.32 -55.29)"/></g></svg>