<?xml version="1.0" standalone="no"?>
<!DOCTYPE svg PUBLIC "-//W3C//DTD SVG 20010904//EN"
 "http://www.w3.org/TR/2001/REC-SVG-20010904/DTD/svg10.dtd">
<svg version="1.0" xmlns="http://www.w3.org/2000/svg"
 width="640.000000pt" height="640.000000pt" viewBox="0 0 640.000000 640.000000"
 preserveAspectRatio="xMidYMid meet">
<metadata>
Created by potrace 1.11, written by Peter Selinger 2001-2013
</metadata>
<g transform="translate(0.000000,640.000000) scale(0.100000,-0.100000)"
fill="#000000" stroke="none">
<path d="M2980 6397 c-3 -3 -36 -8 -75 -11 -38 -4 -83 -9 -100 -11 -16 -3 -48
-7 -70 -10 -370 -50 -769 -185 -1088 -367 -117 -67 -272 -168 -329 -212 -14
-12 -41 -32 -59 -46 -152 -114 -382 -330 -504 -473 -189 -222 -368 -508 -475
-762 -24 -55 -49 -115 -57 -133 -28 -64 -102 -298 -126 -402 -42 -176 -62
-290 -72 -410 -2 -19 -8 -79 -15 -133 -12 -93 -9 -423 4 -517 9 -59 15 -113
21 -169 21 -192 127 -566 229 -809 27 -64 128 -273 146 -302 5 -8 30 -51 56
-95 196 -334 511 -675 853 -925 364 -265 797 -457 1231 -544 88 -17 253 -42
360 -53 152 -16 539 -9 680 12 14 2 48 6 75 9 28 4 73 11 100 16 28 5 61 11
75 14 132 21 376 94 556 166 539 215 1073 636 1413 1114 306 431 505 953 565
1486 3 25 9 74 13 110 12 100 9 452 -5 575 -22 187 -23 197 -44 290 -11 50
-22 101 -24 115 -21 113 -142 473 -203 605 -16 33 -39 83 -52 110 -91 197
-322 542 -458 685 -9 9 -41 43 -72 76 -408 428 -925 740 -1474 889 -53 15
-103 28 -113 30 -9 2 -37 8 -62 13 -25 6 -63 13 -85 16 -22 4 -47 8 -55 11 -8
2 -36 6 -62 9 -81 10 -141 18 -168 23 -34 6 -525 15 -530 10z m1215 -481 c256
-16 567 -73 600 -109 213 -237 416 -558 548 -867 105 -247 190 -558 223 -810
3 -25 7 -56 10 -70 13 -76 19 -209 19 -400 0 -229 -5 -308 -30 -460 -9 -52
-17 -104 -19 -115 -6 -42 -29 -144 -51 -225 -166 -597 -492 -1134 -936 -1545
-391 -361 -937 -641 -1494 -765 -125 -28 -153 -33 -255 -46 -25 -3 -56 -7 -70
-9 -36 -6 -251 -18 -340 -18 -81 0 -321 13 -330 18 -3 1 -36 6 -73 10 -37 3
-78 8 -90 11 -12 2 -60 11 -107 20 -152 27 -181 39 -221 86 -240 287 -389 527
-522 840 -104 243 -190 555 -223 808 -3 25 -7 56 -10 70 -26 155 -26 658 0
795 2 11 7 43 10 70 4 28 14 84 22 125 135 674 503 1324 1001 1767 42 37 83
75 92 83 39 37 218 166 322 232 219 138 528 283 777 362 97 31 292 82 342 89
19 3 58 10 85 15 28 6 77 14 110 17 33 4 68 9 79 11 10 2 66 6 125 10 58 3
107 7 108 8 4 3 200 -2 298 -8z"/>
<path d="M2213 4900 c-26 -11 -43 -39 -43 -73 0 -25 487 -816 539 -874 30 -35
38 -38 60 -24 25 16 13 70 -33 156 -53 97 -168 313 -251 470 -32 61 -78 145
-102 189 -24 43 -43 82 -43 87 0 4 -15 24 -34 43 -34 36 -53 42 -93 26z"/>
<path d="M4095 4901 c-21 -9 -51 -61 -250 -436 -26 -49 -62 -117 -80 -150
-183 -341 -179 -333 -167 -361 13 -26 39 -31 64 -11 9 6 73 104 143 217 70
113 137 221 150 240 46 72 233 376 242 395 18 36 2 88 -33 103 -29 14 -41 14
-69 3z"/>
<path d="M3130 4813 c-23 -29 -23 -61 -5 -393 1 -30 6 -120 9 -200 6 -129 9
-147 28 -162 41 -36 67 -15 73 59 2 26 6 104 10 173 5 125 14 292 20 405 6
104 -18 145 -84 145 -20 0 -36 -8 -51 -27z"/>
<path d="M2875 4260 c-35 -67 18 -210 76 -210 50 0 62 111 20 182 -35 57 -75
69 -96 28z"/>
<path d="M3460 4283 c-46 -17 -80 -80 -82 -149 -1 -86 49 -113 96 -51 26 34
47 106 41 139 -4 19 -32 69 -38 67 -1 0 -9 -3 -17 -6z"/>
<path d="M1785 4035 c-29 -28 -32 -71 -7 -101 9 -12 60 -43 112 -69 52 -26
190 -96 306 -156 117 -60 219 -109 228 -109 8 0 23 11 32 25 25 38 32 32 -271
227 -38 25 -116 75 -173 111 -168 109 -185 115 -227 72z"/>
<path d="M4355 3957 c-88 -56 -222 -143 -298 -192 -145 -94 -171 -123 -132
-152 11 -7 24 -13 31 -13 12 0 228 108 509 254 127 66 160 96 150 135 -9 38
-44 71 -75 71 -16 0 -87 -39 -185 -103z"/>
<path d="M2390 3995 c-40 -48 73 -185 152 -185 78 0 25 130 -73 181 -46 23
-63 24 -79 4z"/>
<path d="M3884 3978 c-57 -39 -98 -107 -85 -141 7 -17 16 -22 45 -21 105 3
208 193 105 194 -9 0 -38 -15 -65 -32z"/>
<path d="M2128 3515 c-20 -11 -26 -21 -23 -38 5 -26 29 -44 99 -74 47 -20 54
-20 86 -7 19 8 39 19 45 25 17 17 -17 62 -65 87 -51 25 -103 28 -142 7z"/>
<path d="M4139 3522 c-66 -20 -118 -71 -101 -99 16 -24 55 -35 108 -28 42 5
62 14 95 44 l43 38 -27 27 c-26 26 -69 33 -118 18z"/>
<path d="M1255 3256 c-30 -30 -33 -74 -6 -107 18 -23 25 -24 128 -23 95 1 327
8 623 19 52 2 142 4 199 5 96 2 106 4 129 27 l25 25 -24 23 c-23 22 -32 24
-222 30 -109 3 -257 8 -330 10 -73 3 -214 7 -315 10 l-183 5 -24 -24z"/>
<path d="M4837 3274 c-1 -1 -112 -5 -247 -9 -135 -4 -270 -9 -300 -10 -30 -1
-93 -4 -140 -5 -98 -3 -120 -11 -120 -45 0 -47 18 -50 325 -60 105 -3 251 -8
325 -10 424 -15 408 -16 438 10 31 26 36 46 20 87 -15 40 -49 49 -181 46 -65
-2 -119 -4 -120 -4z"/>
<path d="M2173 2991 c-45 -21 -77 -59 -68 -83 23 -59 187 -33 225 36 14 26 14
28 -9 47 -30 25 -93 25 -148 0z"/>
<path d="M4052 2990 c-18 -17 -20 -24 -10 -45 25 -56 156 -88 211 -52 27 18
28 18 10 48 -37 62 -165 92 -211 49z"/>
<path d="M2290 2744 c-58 -31 -193 -100 -300 -155 -107 -55 -203 -109 -212
-120 -38 -45 -12 -112 47 -123 27 -6 65 16 330 186 309 199 327 215 295 254
-20 23 -50 16 -160 -42z"/>
<path d="M3938 2793 c-23 -6 -28 -26 -15 -53 10 -19 356 -252 542 -365 69 -42
121 -38 144 12 15 33 13 54 -7 79 -9 12 -116 72 -237 134 -121 62 -257 132
-302 156 -81 43 -91 46 -125 37z"/>
<path d="M3823 2589 c-65 -24 12 -161 106 -189 28 -7 39 -6 52 6 56 51 -83
212 -158 183z"/>
<path d="M2468 2565 c-41 -28 -88 -99 -88 -134 0 -29 37 -46 72 -32 67 25 136
118 124 167 -9 33 -59 32 -108 -1z"/>
<path d="M2733 2471 c-18 -5 -93 -99 -93 -117 0 -2 -35 -59 -77 -127 -43 -68
-83 -132 -90 -143 -6 -10 -75 -121 -153 -247 -78 -125 -144 -236 -147 -247 -8
-31 16 -77 48 -90 42 -18 83 10 123 85 18 33 56 105 86 160 167 315 204 383
248 465 86 161 110 212 105 230 -7 27 -24 38 -50 31z"/>
<path d="M3605 2464 c-19 -19 -19 -53 -2 -79 8 -11 40 -69 72 -130 32 -60 89
-168 127 -240 89 -164 146 -272 204 -382 56 -107 95 -147 133 -138 57 14 81
67 54 118 -16 32 -485 788 -512 826 -23 33 -56 44 -76 25z"/>
<path d="M2928 2342 c-42 -25 -71 -95 -65 -156 5 -60 29 -84 61 -63 12 7 35
42 53 77 30 61 31 66 17 100 -23 55 -34 62 -66 42z"/>
<path d="M3151 2342 c-5 -10 -12 -87 -16 -172 -4 -85 -8 -177 -10 -205 -2 -27
-7 -118 -10 -200 -6 -137 -5 -153 12 -173 29 -35 74 -39 109 -9 36 31 36 12 8
527 -13 242 -15 250 -60 250 -13 0 -28 -8 -33 -18z"/>
<path d="M3404 2345 c-35 -24 -37 -77 -5 -149 28 -62 43 -76 82 -76 31 0 36
60 13 157 -9 35 -41 83 -57 83 -7 0 -22 -7 -33 -15z"/>
</g>
</svg>
