<?xml version="1.0" standalone="no"?>
<!DOCTYPE svg PUBLIC "-//W3C//DTD SVG 20010904//EN"
 "http://www.w3.org/TR/2001/REC-SVG-20010904/DTD/svg10.dtd">
<svg version="1.0" xmlns="http://www.w3.org/2000/svg"
 width="808.000000pt" height="808.000000pt" viewBox="0 0 808.000000 808.000000"
 preserveAspectRatio="xMidYMid meet">
<metadata>
Created by potrace 1.11, written by Peter Selinger 2001-2013
</metadata>
<g transform="translate(0.000000,808.000000) scale(0.100000,-0.100000)"
fill="#000000" stroke="none">
<path d="M4732 7998 c-5 -5 -16 -10 -24 -11 -23 -4 -78 -47 -78 -63 0 -8 -4
-14 -9 -14 -21 0 -48 -127 -45 -212 1 -31 5 -73 9 -95 4 -21 8 -51 10 -68 2
-16 9 -50 15 -75 7 -25 13 -52 15 -61 2 -9 14 -49 26 -90 13 -41 23 -76 24
-79 0 -3 3 -9 6 -15 4 -5 9 -23 13 -39 7 -27 67 -188 86 -231 6 -11 31 -69 58
-130 75 -169 136 -295 144 -295 5 0 7 3 7 8 -1 4 0 9 1 12 1 3 3 12 5 20 1 8
7 40 14 70 19 96 24 124 24 148 1 12 5 22 10 22 4 0 5 5 2 10 -4 6 -2 34 4 63
6 28 13 75 16 102 4 28 8 60 10 73 19 117 26 484 11 587 -11 79 -33 167 -50
200 -9 17 -16 34 -16 38 0 24 -98 114 -134 123 -45 11 -144 12 -154 2z"/>
<path d="M3567 7835 c-77 -21 -156 -66 -206 -116 -61 -60 -67 -70 -77 -110
-24 -105 -3 -195 73 -317 18 -29 33 -55 33 -58 0 -3 6 -11 13 -18 6 -7 30 -34
52 -61 55 -67 206 -218 285 -285 36 -30 67 -57 70 -60 3 -3 28 -23 55 -45 28
-22 55 -43 60 -48 66 -55 456 -327 469 -327 5 0 0 73 -10 140 -3 25 -8 56 -9
70 -2 14 -6 39 -9 55 -2 17 -8 50 -11 75 -4 25 -9 54 -11 65 -20 94 -26 123
-30 144 -3 14 -7 28 -9 32 -3 4 -7 23 -11 44 -3 20 -12 54 -19 76 -8 22 -14
40 -14 42 0 1 -2 9 -4 17 -3 8 -10 35 -18 60 -7 25 -15 50 -19 55 -4 6 -13 30
-20 55 -8 25 -31 80 -52 123 -21 43 -38 82 -38 87 0 6 -4 10 -10 10 -5 0 -10
5 -10 11 0 23 -85 134 -148 193 -34 31 -152 101 -152 90 0 -4 -6 -2 -12 3 -19
15 -156 14 -211 -2z"/>
<path d="M143 7778 c0 -7 -3 -38 -8 -68 -4 -30 -8 -68 -10 -85 -2 -16 -6 -43
-9 -60 -6 -34 -13 -98 -21 -182 -3 -32 -8 -71 -11 -87 -3 -16 -7 -56 -9 -90
-6 -68 -12 -150 -20 -241 -13 -155 -17 -289 -20 -662 -1 -221 1 -420 5 -443 4
-22 3 -43 -1 -46 -5 -3 -6 -11 -2 -17 4 -7 8 -23 9 -37 8 -144 15 -252 19
-284 3 -21 8 -68 10 -105 6 -78 10 -118 19 -186 4 -27 9 -70 12 -95 3 -25 8
-56 10 -70 3 -14 7 -45 10 -70 2 -25 7 -56 9 -70 3 -14 8 -45 11 -70 3 -25 8
-54 10 -65 3 -11 7 -35 10 -54 3 -18 8 -43 11 -55 2 -11 6 -32 8 -46 2 -14 4
-25 5 -25 2 0 3 -8 13 -77 3 -20 11 -56 18 -80 6 -24 12 -52 14 -63 1 -11 14
-69 29 -130 15 -60 29 -117 31 -125 13 -56 28 -115 46 -180 11 -41 26 -97 34
-125 20 -74 134 -425 150 -460 18 -41 29 -78 27 -87 -1 -5 3 -8 8 -8 5 0 9 -3
8 -7 -3 -8 17 -66 33 -95 5 -10 9 -22 9 -28 0 -6 9 -32 21 -58 12 -26 24 -56
29 -67 8 -22 33 -77 79 -178 17 -37 31 -70 31 -73 0 -6 170 -347 197 -394 65
-115 142 -245 185 -315 27 -44 55 -89 61 -100 7 -11 14 -22 17 -25 3 -3 30
-41 59 -85 85 -126 239 -331 288 -382 12 -13 20 -23 17 -23 -3 0 11 -17 30
-37 18 -21 44 -51 57 -66 60 -71 216 -232 305 -317 130 -123 315 -276 396
-330 21 -14 38 -28 38 -32 0 -5 6 -8 14 -8 8 0 16 -3 18 -8 2 -4 28 -23 58
-42 30 -19 57 -37 60 -40 10 -11 110 -70 120 -70 6 0 10 -3 10 -7 0 -5 10 -13
23 -19 12 -7 87 -45 167 -86 295 -151 651 -266 935 -303 28 -4 61 -9 75 -11
135 -25 614 -25 735 0 21 4 101 16 145 21 107 13 515 122 545 145 6 5 14 8 18
8 12 1 144 52 242 94 89 39 124 56 198 97 20 11 37 18 37 15 0 -2 17 7 37 21
21 14 41 25 45 25 9 0 220 127 313 188 89 58 304 212 326 232 32 31 69 60 69
55 0 -3 8 3 18 13 10 9 35 31 56 47 21 17 50 41 65 55 66 60 112 100 115 100
14 0 334 316 475 470 53 58 105 114 116 125 17 18 88 101 135 158 8 10 25 31
38 45 13 15 35 43 50 62 15 19 40 50 56 67 16 18 38 48 48 66 13 21 4 14 -29
-23 -126 -144 -423 -413 -512 -464 -9 -5 -22 -16 -29 -23 -7 -7 -17 -13 -22
-13 -5 0 -15 -7 -23 -14 -22 -22 -225 -149 -282 -176 -27 -13 -57 -30 -67 -38
-9 -7 -22 -14 -30 -16 -7 -1 -47 -18 -88 -38 -212 -103 -552 -212 -765 -244
-11 -2 -31 -5 -44 -8 -13 -3 -49 -8 -80 -12 -31 -3 -65 -8 -76 -11 -11 -2 -49
-6 -85 -8 -36 -3 -87 -7 -115 -10 -64 -6 -337 -6 -435 0 -151 9 -319 27 -390
41 -14 2 -40 7 -59 9 -67 10 -94 16 -111 25 -10 5 -20 7 -23 4 -3 -3 -22 -1
-44 5 -41 11 -238 61 -263 66 -26 6 -324 104 -350 116 -14 6 -33 15 -42 20
-10 5 -22 9 -27 9 -30 0 -599 266 -621 290 -3 3 -16 11 -29 18 -13 8 -40 23
-60 35 -20 11 -56 32 -81 46 -25 13 -47 27 -50 31 -3 3 -41 28 -85 55 -44 27
-82 53 -83 57 -2 4 -8 8 -14 8 -5 0 -16 6 -23 12 -35 31 -45 38 -45 31 0 -4
-4 -3 -8 2 -4 6 -43 36 -87 68 -44 31 -87 63 -95 70 -8 7 -46 37 -85 67 -38
30 -75 59 -81 65 -6 5 -33 28 -60 50 -26 22 -58 49 -70 60 -12 11 -54 48 -92
83 -164 146 -423 415 -552 572 -25 30 -47 57 -51 60 -7 6 -63 78 -181 235 -89
117 -268 379 -268 390 0 4 -10 21 -23 38 -24 34 -29 43 -78 127 -70 120 -125
220 -202 375 -63 126 -137 283 -137 291 0 2 -11 28 -25 58 -14 30 -25 58 -25
61 0 3 -9 27 -21 53 -33 76 -36 84 -58 147 -12 33 -21 63 -21 68 0 4 -7 21
-16 38 -8 17 -17 38 -19 47 -2 10 -14 51 -28 92 -22 65 -70 223 -82 270 -13
49 -58 228 -62 245 -2 11 -5 25 -7 30 -2 6 -6 28 -11 50 -4 22 -10 49 -12 60
-3 11 -6 29 -8 40 -3 21 -10 53 -20 95 -3 14 -7 41 -10 60 -2 19 -6 44 -9 56
-2 12 -7 44 -11 72 -3 29 -10 64 -13 79 -4 16 -7 47 -7 70 0 24 -2 43 -5 43
-3 0 -6 8 -6 18 -1 16 -3 43 -18 187 -27 253 -27 994 -1 1170 2 17 7 62 10
100 3 39 8 80 11 93 2 12 1 22 -4 22 -5 0 -9 -6 -9 -12z"/>
<path d="M5745 7301 c-139 -24 -226 -162 -263 -421 -13 -88 -5 -540 10 -540 3
0 4 -8 2 -17 -2 -10 0 -24 5 -31 7 -12 12 -12 32 0 13 7 26 15 29 18 3 3 19
12 35 20 64 32 170 94 173 102 2 4 8 8 14 8 12 0 153 97 223 154 130 105 235
239 249 318 3 13 5 25 6 28 8 19 -2 87 -16 118 -17 36 -90 115 -129 139 -62
39 -174 86 -233 98 -72 16 -77 16 -137 6z"/>
<path d="M2778 6915 c-2 -2 -21 -5 -43 -8 -54 -7 -100 -24 -160 -61 -62 -38
-67 -42 -113 -90 -81 -85 -94 -101 -109 -136 -3 -8 -13 -31 -21 -50 -22 -53
-10 -169 21 -202 6 -8 17 -23 23 -33 15 -27 121 -112 164 -133 19 -9 37 -19
40 -22 12 -15 244 -108 287 -116 12 -2 35 -9 50 -16 31 -12 49 -17 78 -22 11
-2 20 -4 20 -5 0 -2 7 -4 15 -6 8 -2 24 -6 35 -9 35 -9 299 -64 335 -70 19 -3
46 -8 60 -11 40 -8 71 -13 130 -20 30 -4 58 -9 61 -11 4 -2 31 -6 62 -8 30 -3
67 -7 83 -10 27 -4 134 -17 177 -21 9 -1 17 0 17 2 0 11 -83 147 -108 178 -4
6 -17 25 -27 43 -11 17 -22 32 -26 32 -4 0 -12 14 -19 30 -7 17 -15 30 -19 30
-4 0 -14 12 -23 28 -9 15 -26 38 -37 52 -11 14 -24 30 -28 35 -139 176 -313
354 -441 450 -151 112 -290 171 -425 179 -31 2 -58 2 -59 1z"/>
<path d="M6544 6470 c-61 -13 -189 -86 -273 -154 -62 -51 -257 -255 -319 -334
-36 -48 -72 -93 -79 -100 -7 -8 -18 -22 -23 -32 -8 -14 -5 -19 13 -24 12 -3
25 -5 29 -6 5 0 25 -7 45 -14 21 -8 61 -19 88 -25 28 -7 61 -14 75 -17 52 -12
167 -32 220 -38 111 -14 325 -7 355 12 6 4 15 7 20 7 12 1 40 12 74 28 22 11
68 53 97 89 32 41 49 162 33 242 -14 68 -17 79 -34 131 -37 107 -97 189 -161
220 -40 19 -111 26 -160 15z"/>
<path d="M6778 5495 c-2 -2 -61 -5 -133 -9 -71 -3 -146 -7 -165 -10 -19 -2
-57 -7 -85 -10 -67 -8 -134 -17 -165 -22 -14 -2 -41 -7 -60 -10 -74 -11 -140
-26 -140 -31 0 -7 -4 -4 151 -124 113 -87 319 -229 333 -229 4 0 23 -10 44
-23 88 -54 283 -131 367 -144 76 -12 179 -5 228 16 136 59 232 247 196 385
-11 42 -74 112 -119 134 -84 40 -179 61 -320 68 -52 3 -103 7 -112 8 -9 2 -18
3 -20 1z"/>
<path d="M4036 5283 c-1 -1 -56 -5 -122 -8 -117 -6 -219 -13 -219 -15 0 -1
-22 -3 -50 -5 -77 -6 -174 -17 -260 -30 -22 -4 -53 -8 -70 -10 -33 -3 -156
-25 -225 -40 -49 -10 -66 -15 -145 -35 -44 -11 -87 -24 -95 -27 -8 -3 -21 -7
-29 -9 -14 -3 -77 -28 -163 -67 -27 -11 -48 -24 -48 -28 0 -4 -10 -9 -23 -13
-33 -8 -133 -108 -153 -153 -28 -65 -22 -171 14 -227 4 -6 7 -13 7 -16 1 -13
92 -127 133 -166 51 -48 136 -96 210 -117 94 -28 277 -7 369 42 10 5 43 22 73
37 61 30 183 110 217 143 12 12 24 21 27 21 17 0 261 240 356 350 89 104 110
131 191 240 38 52 74 100 79 107 18 22 11 28 -31 28 -22 0 -41 -1 -43 -2z"/>
<path d="M5830 4934 c0 -9 63 -99 72 -102 4 -2 8 -8 8 -13 0 -8 155 -226 170
-239 3 -3 21 -26 40 -52 18 -27 37 -48 42 -48 4 0 8 -6 8 -12 0 -7 15 -29 33
-48 17 -19 50 -57 72 -85 61 -77 302 -315 373 -369 126 -96 228 -148 320 -162
21 -3 39 -6 42 -7 3 -1 25 2 50 6 123 21 232 157 213 267 -8 52 -8 52 -29 95
-70 146 -345 342 -714 508 -19 8 -70 31 -112 51 -43 19 -78 32 -78 29 0 -3 -6
-1 -12 4 -7 6 -51 25 -98 42 -47 18 -94 36 -105 41 -29 14 -246 90 -272 96
-13 2 -23 2 -23 -2z"/>
<path d="M4555 4784 c-125 -139 -185 -208 -241 -279 -18 -22 -60 -76 -95 -120
-35 -44 -69 -86 -76 -93 -7 -7 -13 -18 -13 -23 0 -5 -8 -17 -17 -27 -10 -9
-40 -51 -68 -92 -27 -41 -53 -77 -56 -80 -23 -21 -168 -281 -228 -412 -34 -72
-72 -224 -75 -297 -8 -173 77 -291 243 -340 78 -23 85 -24 178 -27 204 -7 340
82 445 291 27 52 74 192 83 247 3 17 7 34 9 37 3 5 8 33 21 131 19 139 25 542
11 705 -11 124 -16 179 -21 215 -2 19 -7 59 -11 89 -3 30 -8 62 -9 70 -2 9 -4
28 -4 44 -1 15 -4 27 -9 27 -4 0 -34 -30 -67 -66z"/>
<path d="M5249 4835 c0 -5 -2 -19 -5 -30 -2 -11 -6 -40 -9 -65 -3 -25 -8 -56
-10 -70 -11 -64 -16 -97 -21 -139 -5 -53 -11 -104 -19 -176 -12 -98 -24 -258
-32 -400 -14 -265 -6 -518 22 -735 27 -208 96 -383 186 -470 59 -57 102 -74
195 -76 122 -3 227 46 288 135 35 51 65 139 71 209 2 31 5 59 6 62 2 6 2 1 -5
95 -4 44 -8 92 -11 105 -3 14 -7 39 -10 55 -6 44 -33 155 -52 215 -2 8 -4 15
-4 15 1 0 -31 100 -52 160 -30 84 -123 313 -167 410 -40 89 -187 383 -227 455
-17 30 -48 87 -68 125 -54 99 -75 132 -76 120z"/>
<path d="M7846 2213 c-6 -14 -5 -15 5 -6 7 7 10 15 7 18 -3 3 -9 -2 -12 -12z"/>
<path d="M7815 2179 c-4 -6 -5 -12 -2 -15 2 -3 7 2 10 11 7 17 1 20 -8 4z"/>
</g>
</svg>
